<svg width="120" height="120" viewBox="0 0 120 120" fill="none" xmlns="http://www.w3.org/2000/svg">
<path d="M120 60C120 93.1371 93.1371 120 60 120C26.8629 120 0 93.1371 0 60C0 26.8629 26.8629 0 60 0C93.1371 0 120 26.8629 120 60Z" fill="#F0F0F0"/>
<path fill-rule="evenodd" clip-rule="evenodd" d="M43 28C43 28 53.1975 28 60 21C66.8025 28 77 28 77 28V48.8172C77 58.6866 69.7644 67.0641 60 68.5C50.2356 67.0641 43 58.6866 43 48.8172V28Z" fill="#C4C4C4"/>
<path d="M34.707 89.1699H36.459C36.4238 89.7441 36.2656 90.2539 35.9844 90.6992C35.707 91.1445 35.3184 91.4922 34.8184 91.7422C34.3223 91.9922 33.7246 92.1172 33.0254 92.1172C32.4785 92.1172 31.9883 92.0234 31.5547 91.8359C31.1211 91.6445 30.75 91.3711 30.4414 91.0156C30.1367 90.6602 29.9043 90.2305 29.7441 89.7266C29.584 89.2227 29.5039 88.6582 29.5039 88.0332V87.4414C29.5039 86.8164 29.5859 86.252 29.75 85.748C29.918 85.2402 30.1562 84.8086 30.4648 84.4531C30.7773 84.0977 31.1504 83.8242 31.584 83.6328C32.0176 83.4414 32.502 83.3457 33.0371 83.3457C33.748 83.3457 34.3477 83.4746 34.8359 83.7324C35.3281 83.9902 35.709 84.3457 35.9785 84.7988C36.252 85.252 36.416 85.7676 36.4707 86.3457H34.7129C34.6934 86.002 34.625 85.7109 34.5078 85.4727C34.3906 85.2305 34.2129 85.0488 33.9746 84.9277C33.7402 84.8027 33.4277 84.7402 33.0371 84.7402C32.7441 84.7402 32.4883 84.7949 32.2695 84.9043C32.0508 85.0137 31.8672 85.1797 31.7188 85.4023C31.5703 85.625 31.459 85.9062 31.3848 86.2461C31.3145 86.582 31.2793 86.9766 31.2793 87.4297V88.0332C31.2793 88.4746 31.3125 88.8633 31.3789 89.1992C31.4453 89.5312 31.5469 89.8125 31.6836 90.043C31.8242 90.2695 32.0039 90.4414 32.2227 90.5586C32.4453 90.6719 32.7129 90.7285 33.0254 90.7285C33.3926 90.7285 33.6953 90.6699 33.9336 90.5527C34.1719 90.4355 34.3535 90.2617 34.4785 90.0312C34.6074 89.8008 34.6836 89.5137 34.707 89.1699Z" fill="#C4C4C4"/>
<path d="M41.082 84.9277L38.7617 92H36.8926L40.0625 83.4688H41.252L41.082 84.9277ZM43.0098 92L40.6836 84.9277L40.4961 83.4688H41.6973L44.8848 92H43.0098ZM42.9043 88.8242V90.2012H38.3984V88.8242H42.9043Z" fill="#C4C4C4"/>
<path d="M52.6191 83.4688V92H50.8613L47.4336 86.2812V92H45.6758V83.4688H47.4336L50.8672 89.1934V83.4688H52.6191Z" fill="#C4C4C4"/>
<path d="M59.0938 89.1699H60.8457C60.8105 89.7441 60.6523 90.2539 60.3711 90.6992C60.0938 91.1445 59.7051 91.4922 59.2051 91.7422C58.709 91.9922 58.1113 92.1172 57.4121 92.1172C56.8652 92.1172 56.375 92.0234 55.9414 91.8359C55.5078 91.6445 55.1367 91.3711 54.8281 91.0156C54.5234 90.6602 54.291 90.2305 54.1309 89.7266C53.9707 89.2227 53.8906 88.6582 53.8906 88.0332V87.4414C53.8906 86.8164 53.9727 86.252 54.1367 85.748C54.3047 85.2402 54.543 84.8086 54.8516 84.4531C55.1641 84.0977 55.5371 83.8242 55.9707 83.6328C56.4043 83.4414 56.8887 83.3457 57.4238 83.3457C58.1348 83.3457 58.7344 83.4746 59.2227 83.7324C59.7148 83.9902 60.0957 84.3457 60.3652 84.7988C60.6387 85.252 60.8027 85.7676 60.8574 86.3457H59.0996C59.0801 86.002 59.0117 85.7109 58.8945 85.4727C58.7773 85.2305 58.5996 85.0488 58.3613 84.9277C58.127 84.8027 57.8145 84.7402 57.4238 84.7402C57.1309 84.7402 56.875 84.7949 56.6562 84.9043C56.4375 85.0137 56.2539 85.1797 56.1055 85.4023C55.957 85.625 55.8457 85.9062 55.7715 86.2461C55.7012 86.582 55.666 86.9766 55.666 87.4297V88.0332C55.666 88.4746 55.6992 88.8633 55.7656 89.1992C55.832 89.5312 55.9336 89.8125 56.0703 90.043C56.2109 90.2695 56.3906 90.4414 56.6094 90.5586C56.832 90.6719 57.0996 90.7285 57.4121 90.7285C57.7793 90.7285 58.082 90.6699 58.3203 90.5527C58.5586 90.4355 58.7402 90.2617 58.8652 90.0312C58.9941 89.8008 59.0703 89.5137 59.0938 89.1699Z" fill="#C4C4C4"/>
<path d="M67.7246 90.6289V92H63.1836V90.6289H67.7246ZM63.7578 83.4688V92H62V83.4688H63.7578ZM67.1328 86.9434V88.2793H63.1836V86.9434H67.1328ZM67.7188 83.4688V84.8457H63.1836V83.4688H67.7188Z" fill="#C4C4C4"/>
<path d="M74.2344 90.6289V92H69.9395V90.6289H74.2344ZM70.5078 83.4688V92H68.75V83.4688H70.5078Z" fill="#C4C4C4"/>
<path d="M80.9668 90.6289V92H76.4258V90.6289H80.9668ZM77 83.4688V92H75.2422V83.4688H77ZM80.375 86.9434V88.2793H76.4258V86.9434H80.375ZM80.9609 83.4688V84.8457H76.4258V83.4688H80.9609Z" fill="#C4C4C4"/>
<path d="M84.6113 92H82.7539L82.7656 90.6289H84.6113C85.0723 90.6289 85.4609 90.5254 85.7773 90.3184C86.0938 90.1074 86.332 89.8008 86.4922 89.3984C86.6562 88.9961 86.7383 88.5098 86.7383 87.9395V87.5234C86.7383 87.0859 86.6914 86.7012 86.5977 86.3691C86.5078 86.0371 86.373 85.7578 86.1934 85.5312C86.0137 85.3047 85.793 85.1348 85.5312 85.0215C85.2695 84.9043 84.9688 84.8457 84.6289 84.8457H82.7188V83.4688H84.6289C85.1992 83.4688 85.7207 83.5664 86.1934 83.7617C86.6699 83.9531 87.082 84.2285 87.4297 84.5879C87.7773 84.9473 88.0449 85.377 88.2324 85.877C88.4238 86.373 88.5195 86.9258 88.5195 87.5352V87.9395C88.5195 88.5449 88.4238 89.0977 88.2324 89.5977C88.0449 90.0977 87.7773 90.5273 87.4297 90.8867C87.0859 91.2422 86.6738 91.5176 86.1934 91.7129C85.7168 91.9043 85.1895 92 84.6113 92ZM83.75 83.4688V92H81.9922V83.4688H83.75Z" fill="#C4C4C4"/>
<rect x="50" y="42" width="20" height="4" fill="white"/>
</svg>
