<svg width="120" height="120" viewBox="0 0 120 120" fill="none" xmlns="http://www.w3.org/2000/svg">
<path d="M120 60C120 93.1371 93.1371 120 60 120C26.8629 120 0 93.1371 0 60C0 26.8629 26.8629 0 60 0C93.1371 0 120 26.8629 120 60Z" fill="#FFEEF4"/>
<path fill-rule="evenodd" clip-rule="evenodd" d="M43 28C43 28 53.1975 28 60 21C66.8025 28 77 28 77 28V48.8172C77 58.6866 69.7644 67.0641 60 68.5C50.2356 67.0641 43 58.6866 43 48.8172V28Z" fill="#E5004C"/>
<path d="M52 38.2642L54.2642 36L67.8492 49.585L65.5851 51.8492L52 38.2642Z" fill="white"/>
<path d="M67.8496 38.3937L65.5854 36.1295L52.0004 49.7146L54.2645 51.9787L67.8496 38.3937Z" fill="white"/>
<path d="M38.8848 93V84.4102H44.7734V85.8633H40.6191V87.8965H44.2051V89.3496H40.6191V93H38.8848Z" fill="#E5004C"/>
<path d="M53.2871 93H51.4004L50.6504 91.0488H47.2168L46.5078 93H44.668L48.0137 84.4102H49.8477L53.2871 93ZM50.0938 89.6016L48.9102 86.4141L47.75 89.6016H50.0938Z" fill="#E5004C"/>
<path d="M54.1602 93V84.4102H55.8945V93H54.1602Z" fill="#E5004C"/>
<path d="M57.5996 93V84.4805H59.334V91.5527H63.6465V93H57.5996Z" fill="#E5004C"/>
<path d="M64.8887 93V84.4102H71.2578V85.8633H66.623V87.7676H70.9355V89.2148H66.623V91.5527H71.4219V93H64.8887Z" fill="#E5004C"/>
<path d="M72.8867 84.4102H76.0566C76.7715 84.4102 77.3164 84.4648 77.6914 84.5742C78.1953 84.7227 78.627 84.9863 78.9863 85.3652C79.3457 85.7441 79.6191 86.209 79.8066 86.7598C79.9941 87.3066 80.0879 87.9824 80.0879 88.7871C80.0879 89.4941 80 90.1035 79.8242 90.6152C79.6094 91.2402 79.3027 91.7461 78.9043 92.1328C78.6035 92.4258 78.1973 92.6543 77.6855 92.8184C77.3027 92.9395 76.791 93 76.1504 93H72.8867V84.4102ZM74.6211 85.8633V91.5527H75.916C76.4004 91.5527 76.75 91.5254 76.9648 91.4707C77.2461 91.4004 77.4785 91.2812 77.6621 91.1133C77.8496 90.9453 78.002 90.6699 78.1191 90.2871C78.2363 89.9004 78.2949 89.375 78.2949 88.7109C78.2949 88.0469 78.2363 87.5371 78.1191 87.1816C78.002 86.8262 77.8379 86.5488 77.627 86.3496C77.416 86.1504 77.1484 86.0156 76.8242 85.9453C76.582 85.8906 76.1074 85.8633 75.4004 85.8633H74.6211Z" fill="#E5004C"/>
</svg>
