<svg width="120" height="120" viewBox="0 0 120 120" fill="none" xmlns="http://www.w3.org/2000/svg">
<path d="M120 60C120 93.1371 93.1371 120 60 120C26.8629 120 0 93.1371 0 60C0 26.8629 26.8629 0 60 0C93.1371 0 120 26.8629 120 60Z" fill="#F1FFF4"/>
<path fill-rule="evenodd" clip-rule="evenodd" d="M43 28C43 28 53.1975 28 60 21C66.8025 28 77 28 77 28V48.8172C77 58.6866 69.7644 67.0641 60 68.5C50.2356 67.0641 43 58.6866 43 48.8172V28Z" fill="#1AAC60"/>
<path d="M57.5 51L50 43.5L57.5 46L71 37.5L57.5 51Z" fill="white"/>
<path d="M35.873 93V84.4102H38.6562C39.7109 84.4102 40.3984 84.4531 40.7188 84.5391C41.2109 84.668 41.623 84.9492 41.9551 85.3828C42.2871 85.8125 42.4531 86.3691 42.4531 87.0527C42.4531 87.5801 42.3574 88.0234 42.166 88.3828C41.9746 88.7422 41.7305 89.0254 41.4336 89.2324C41.1406 89.4355 40.8418 89.5703 40.5371 89.6367C40.123 89.7188 39.5234 89.7598 38.7383 89.7598H37.6074V93H35.873ZM37.6074 85.8633V88.3008H38.5566C39.2402 88.3008 39.6973 88.2559 39.9277 88.166C40.1582 88.0762 40.3379 87.9355 40.4668 87.7441C40.5996 87.5527 40.666 87.3301 40.666 87.0762C40.666 86.7637 40.5742 86.5059 40.3906 86.3027C40.207 86.0996 39.9746 85.9727 39.6934 85.9219C39.4863 85.8828 39.0703 85.8633 38.4453 85.8633H37.6074Z" fill="#1AAC60"/>
<path d="M50.7324 93H48.8457L48.0957 91.0488H44.6621L43.9531 93H42.1133L45.459 84.4102H47.293L50.7324 93ZM47.5391 89.6016L46.3555 86.4141L45.1953 89.6016H47.5391Z" fill="#1AAC60"/>
<path d="M51.2188 90.2051L52.9062 90.041C53.0078 90.6074 53.2129 91.0234 53.5215 91.2891C53.834 91.5547 54.2539 91.6875 54.7812 91.6875C55.3398 91.6875 55.7598 91.5703 56.041 91.3359C56.3262 91.0977 56.4688 90.8203 56.4688 90.5039C56.4688 90.3008 56.4082 90.1289 56.2871 89.9883C56.1699 89.8438 55.9629 89.7188 55.666 89.6133C55.4629 89.543 55 89.418 54.2773 89.2383C53.3477 89.0078 52.6953 88.7246 52.3203 88.3887C51.793 87.916 51.5293 87.3398 51.5293 86.6602C51.5293 86.2227 51.6523 85.8145 51.8984 85.4355C52.1484 85.0527 52.5059 84.7617 52.9707 84.5625C53.4395 84.3633 54.0039 84.2637 54.6641 84.2637C55.7422 84.2637 56.5527 84.5 57.0957 84.9727C57.6426 85.4453 57.9297 86.0762 57.957 86.8652L56.2227 86.9414C56.1484 86.5 55.9883 86.1836 55.7422 85.9922C55.5 85.7969 55.1348 85.6992 54.6465 85.6992C54.1426 85.6992 53.748 85.8027 53.4629 86.0098C53.2793 86.1426 53.1875 86.3203 53.1875 86.543C53.1875 86.7461 53.2734 86.9199 53.4453 87.0645C53.6641 87.248 54.1953 87.4395 55.0391 87.6387C55.8828 87.8379 56.5059 88.0449 56.9082 88.2598C57.3145 88.4707 57.6309 88.7617 57.8574 89.1328C58.0879 89.5 58.2031 89.9551 58.2031 90.498C58.2031 90.9902 58.0664 91.4512 57.793 91.8809C57.5195 92.3105 57.1328 92.6309 56.6328 92.8418C56.1328 93.0488 55.5098 93.1523 54.7637 93.1523C53.6777 93.1523 52.8438 92.9023 52.2617 92.4023C51.6797 91.8984 51.332 91.166 51.2188 90.2051Z" fill="#1AAC60"/>
<path d="M59.2227 90.2051L60.9102 90.041C61.0117 90.6074 61.2168 91.0234 61.5254 91.2891C61.8379 91.5547 62.2578 91.6875 62.7852 91.6875C63.3438 91.6875 63.7637 91.5703 64.0449 91.3359C64.3301 91.0977 64.4727 90.8203 64.4727 90.5039C64.4727 90.3008 64.4121 90.1289 64.291 89.9883C64.1738 89.8438 63.9668 89.7188 63.6699 89.6133C63.4668 89.543 63.0039 89.418 62.2812 89.2383C61.3516 89.0078 60.6992 88.7246 60.3242 88.3887C59.7969 87.916 59.5332 87.3398 59.5332 86.6602C59.5332 86.2227 59.6562 85.8145 59.9023 85.4355C60.1523 85.0527 60.5098 84.7617 60.9746 84.5625C61.4434 84.3633 62.0078 84.2637 62.668 84.2637C63.7461 84.2637 64.5566 84.5 65.0996 84.9727C65.6465 85.4453 65.9336 86.0762 65.9609 86.8652L64.2266 86.9414C64.1523 86.5 63.9922 86.1836 63.7461 85.9922C63.5039 85.7969 63.1387 85.6992 62.6504 85.6992C62.1465 85.6992 61.752 85.8027 61.4668 86.0098C61.2832 86.1426 61.1914 86.3203 61.1914 86.543C61.1914 86.7461 61.2773 86.9199 61.4492 87.0645C61.668 87.248 62.1992 87.4395 63.043 87.6387C63.8867 87.8379 64.5098 88.0449 64.9121 88.2598C65.3184 88.4707 65.6348 88.7617 65.8613 89.1328C66.0918 89.5 66.207 89.9551 66.207 90.498C66.207 90.9902 66.0703 91.4512 65.7969 91.8809C65.5234 92.3105 65.1367 92.6309 64.6367 92.8418C64.1367 93.0488 63.5137 93.1523 62.7676 93.1523C61.6816 93.1523 60.8477 92.9023 60.2656 92.4023C59.6836 91.8984 59.3359 91.166 59.2227 90.2051Z" fill="#1AAC60"/>
<path d="M67.666 93V84.4102H74.0352V85.8633H69.4004V87.7676H73.7129V89.2148H69.4004V91.5527H74.1992V93H67.666Z" fill="#1AAC60"/>
<path d="M75.6641 84.4102H78.834C79.5488 84.4102 80.0938 84.4648 80.4688 84.5742C80.9727 84.7227 81.4043 84.9863 81.7637 85.3652C82.123 85.7441 82.3965 86.209 82.584 86.7598C82.7715 87.3066 82.8652 87.9824 82.8652 88.7871C82.8652 89.4941 82.7773 90.1035 82.6016 90.6152C82.3867 91.2402 82.0801 91.7461 81.6816 92.1328C81.3809 92.4258 80.9746 92.6543 80.4629 92.8184C80.0801 92.9395 79.5684 93 78.9277 93H75.6641V84.4102ZM77.3984 85.8633V91.5527H78.6934C79.1777 91.5527 79.5273 91.5254 79.7422 91.4707C80.0234 91.4004 80.2559 91.2812 80.4395 91.1133C80.627 90.9453 80.7793 90.6699 80.8965 90.2871C81.0137 89.9004 81.0723 89.375 81.0723 88.7109C81.0723 88.0469 81.0137 87.5371 80.8965 87.1816C80.7793 86.8262 80.6152 86.5488 80.4043 86.3496C80.1934 86.1504 79.9258 86.0156 79.6016 85.9453C79.3594 85.8906 78.8848 85.8633 78.1777 85.8633H77.3984Z" fill="#1AAC60"/>
</svg>
