<svg width="120" height="120" viewBox="0 0 120 120" fill="none" xmlns="http://www.w3.org/2000/svg">
<path d="M120 60C120 93.1371 93.1371 120 60 120C26.8629 120 0 93.1371 0 60C0 26.8629 26.8629 0 60 0C93.1371 0 120 26.8629 120 60Z" fill="#FFF9D9"/>
<path fill-rule="evenodd" clip-rule="evenodd" d="M43 28C43 28 53.1975 28 60 21C66.8025 28 77 28 77 28V48.8172C77 58.6866 69.7644 67.0641 60 68.5C50.2356 67.0641 43 58.6866 43 48.8172V28Z" fill="#FFCE00"/>
<path fill-rule="evenodd" clip-rule="evenodd" d="M50 36.3333L60 43L70 36.3333L60 53L50 36.3333Z" fill="white"/>
<path d="M27.8613 84.4102H29.5957V89.0625C29.5957 89.8008 29.6172 90.2793 29.6602 90.498C29.7344 90.8496 29.9102 91.1328 30.1875 91.3477C30.4688 91.5586 30.8516 91.6641 31.3359 91.6641C31.8281 91.6641 32.1992 91.5645 32.4492 91.3652C32.6992 91.1621 32.8496 90.9141 32.9004 90.6211C32.9512 90.3281 32.9766 89.8418 32.9766 89.1621V84.4102H34.7109V88.9219C34.7109 89.9531 34.6641 90.6816 34.5703 91.1074C34.4766 91.5332 34.3027 91.8926 34.0488 92.1855C33.7988 92.4785 33.4629 92.7129 33.041 92.8887C32.6191 93.0605 32.0684 93.1465 31.3887 93.1465C30.5684 93.1465 29.9453 93.0527 29.5195 92.8652C29.0977 92.6738 28.7637 92.4277 28.5176 92.127C28.2715 91.8223 28.1094 91.5039 28.0312 91.1719C27.918 90.6797 27.8613 89.9531 27.8613 88.9922V84.4102Z" fill="#FFCE00"/>
<path d="M36.5625 93V84.4102H38.25L41.7656 90.1465V84.4102H43.377V93H41.6367L38.1738 87.3984V93H36.5625Z" fill="#FFCE00"/>
<path d="M44.7773 90.2051L46.4648 90.041C46.5664 90.6074 46.7715 91.0234 47.0801 91.2891C47.3926 91.5547 47.8125 91.6875 48.3398 91.6875C48.8984 91.6875 49.3184 91.5703 49.5996 91.3359C49.8848 91.0977 50.0273 90.8203 50.0273 90.5039C50.0273 90.3008 49.9668 90.1289 49.8457 89.9883C49.7285 89.8438 49.5215 89.7188 49.2246 89.6133C49.0215 89.543 48.5586 89.418 47.8359 89.2383C46.9062 89.0078 46.2539 88.7246 45.8789 88.3887C45.3516 87.916 45.0879 87.3398 45.0879 86.6602C45.0879 86.2227 45.2109 85.8145 45.457 85.4355C45.707 85.0527 46.0645 84.7617 46.5293 84.5625C46.998 84.3633 47.5625 84.2637 48.2227 84.2637C49.3008 84.2637 50.1113 84.5 50.6543 84.9727C51.2012 85.4453 51.4883 86.0762 51.5156 86.8652L49.7812 86.9414C49.707 86.5 49.5469 86.1836 49.3008 85.9922C49.0586 85.7969 48.6934 85.6992 48.2051 85.6992C47.7012 85.6992 47.3066 85.8027 47.0215 86.0098C46.8379 86.1426 46.7461 86.3203 46.7461 86.543C46.7461 86.7461 46.832 86.9199 47.0039 87.0645C47.2227 87.248 47.7539 87.4395 48.5977 87.6387C49.4414 87.8379 50.0645 88.0449 50.4668 88.2598C50.873 88.4707 51.1895 88.7617 51.416 89.1328C51.6465 89.5 51.7617 89.9551 51.7617 90.498C51.7617 90.9902 51.625 91.4512 51.3516 91.8809C51.0781 92.3105 50.6914 92.6309 50.1914 92.8418C49.6914 93.0488 49.0684 93.1523 48.3223 93.1523C47.2363 93.1523 46.4023 92.9023 45.8203 92.4023C45.2383 91.8984 44.8906 91.166 44.7773 90.2051Z" fill="#FFCE00"/>
<path d="M55.1543 93V85.8633H52.6055V84.4102H59.4316V85.8633H56.8887V93H55.1543Z" fill="#FFCE00"/>
<path d="M67.4121 93H65.5254L64.7754 91.0488H61.3418L60.6328 93H58.793L62.1387 84.4102H63.9727L67.4121 93ZM64.2188 89.6016L63.0352 86.4141L61.875 89.6016H64.2188Z" fill="#FFCE00"/>
<path d="M68.3438 84.4102H71.7773C72.457 84.4102 72.9629 84.4395 73.2949 84.498C73.6309 84.5527 73.9297 84.6699 74.1914 84.8496C74.457 85.0293 74.6777 85.2695 74.8535 85.5703C75.0293 85.8672 75.1172 86.2012 75.1172 86.5723C75.1172 86.9746 75.0078 87.3438 74.7891 87.6797C74.5742 88.0156 74.2812 88.2676 73.9102 88.4355C74.4336 88.5879 74.8359 88.8477 75.1172 89.2148C75.3984 89.582 75.5391 90.0137 75.5391 90.5098C75.5391 90.9004 75.4473 91.2812 75.2637 91.6523C75.084 92.0195 74.8359 92.3145 74.5195 92.5371C74.207 92.7559 73.8203 92.8906 73.3594 92.9414C73.0703 92.9727 72.373 92.9922 71.2676 93H68.3438V84.4102ZM70.0781 85.8398V87.8262H71.2148C71.8906 87.8262 72.3105 87.8164 72.4746 87.7969C72.7715 87.7617 73.0039 87.6602 73.1719 87.4922C73.3438 87.3203 73.4297 87.0957 73.4297 86.8184C73.4297 86.5527 73.3555 86.3379 73.207 86.1738C73.0625 86.0059 72.8457 85.9043 72.5566 85.8691C72.3848 85.8496 71.8906 85.8398 71.0742 85.8398H70.0781ZM70.0781 89.2559V91.5527H71.6836C72.3086 91.5527 72.7051 91.5352 72.873 91.5C73.1309 91.4531 73.3398 91.3398 73.5 91.1602C73.6641 90.9766 73.7461 90.7324 73.7461 90.4277C73.7461 90.1699 73.6836 89.9512 73.5586 89.7715C73.4336 89.5918 73.252 89.4609 73.0137 89.3789C72.7793 89.2969 72.2676 89.2559 71.4785 89.2559H70.0781Z" fill="#FFCE00"/>
<path d="M77.0566 93V84.4805H78.791V91.5527H83.1035V93H77.0566Z" fill="#FFCE00"/>
<path d="M84.3457 93V84.4102H90.7148V85.8633H86.0801V87.7676H90.3926V89.2148H86.0801V91.5527H90.8789V93H84.3457Z" fill="#FFCE00"/>
</svg>
